<?xml version="1.0" encoding="UTF-8"?>
<!DOCTYPE svg PUBLIC "-//W3C//DTD SVG 1.1//EN" "http://www.w3.org/Graphics/SVG/1.1/DTD/svg11.dtd">
<!-- Creator: CorelDRAW 2017 -->
<svg xmlns="http://www.w3.org/2000/svg" xml:space="preserve" width="735px" height="290px" version="1.1" style="shape-rendering:geometricPrecision; text-rendering:geometricPrecision; image-rendering:optimizeQuality; fill-rule:evenodd; clip-rule:evenodd"
viewBox="0 0 609.46 240.17"
 xmlns:xlink="http://www.w3.org/1999/xlink">
 <defs>
  <style type="text/css">
   <![CDATA[
    .fil1 {fill:black}
    .fil0 {fill:#D02336}
    .fil2 {fill:black;fill-rule:nonzero}
   ]]>
  </style>
 </defs>
 <g id="Capa_x0020_1">
  <metadata id="CorelCorpID_0Corel-Layer"/>
  <g id="_2432984853824">
   <g>
    <path class="fil0" d="M0.26 49.22l132.61 0 0 132.61 -132.61 0 0 -132.61zm8.11 -49.22l116.39 0 -58.19 97.51 -58.2 -97.51z"/>
    <polygon class="fil1" points="171.34,47.89 206.26,47.89 229.93,106.06 255.39,47.89 288.98,47.89 288.98,48.57 246.61,131.85 246.61,180.94 213.54,180.94 213.54,131.85 171.34,48.89 "/>
    <path class="fil1" d="M297.9 47.89l39.09 0 38.51 101.24c-3.12,-12.14 -4.77,-24.28 -4.18,-36.42l0 -64.82 28.4 0 0 133.05 -40.78 0 0.74 -0.42 -37.01 -100.38c2.66,11.56 4.15,23.12 4.21,34.68l0 66.12 -28.98 0 0 -133.05z"/>
    <polygon class="fil1" points="423.65,47.89 506.4,47.89 503.19,71.77 456.2,71.77 456.2,103.02 497.4,103.02 497.4,124.81 456.2,124.81 456.2,157.57 506.4,157.57 506.4,180.94 423.65,180.94 "/>
    <polygon class="fil1" points="524.65,47.89 555.89,47.89 555.89,155.79 607.4,155.79 604.6,180.94 524.65,180.94 "/>
   </g>
   <polygon class="fil2" points="5.93,205.41 5.93,236.05 0,236.05 0,205.41 "/>
   <path id="1" class="fil2" d="M39.94 236.05l-6.21 0 -13.55 -20.75c-0.55,-0.84 -1.01,-1.63 -1.37,-2.37l-0.08 0c0.11,0.97 0.17,2.55 0.17,4.74l0 18.38 -5.67 0 0 -30.64 6.62 0 13.07 20.21c0.67,1.03 1.15,1.82 1.45,2.37l0.09 0c-0.11,-0.54 -0.16,-1.96 -0.16,-4.28l0 -18.3 5.64 0 0 30.64z"/>
   <path id="2" class="fil2" d="M71.73 233.97c-3.01,1.75 -6.65,2.62 -10.9,2.62 -4.75,0 -8.52,-1.38 -11.32,-4.13 -2.8,-2.75 -4.21,-6.5 -4.21,-11.25 0,-4.77 1.53,-8.68 4.58,-11.73 3.06,-3.04 7.09,-4.57 12.11,-4.57 3.28,0 6.12,0.48 8.54,1.42l0 5.77c-2.36,-1.43 -5.26,-2.15 -8.71,-2.15 -3.03,0 -5.5,1 -7.41,3.01 -1.91,2.01 -2.87,4.65 -2.87,7.94 0,3.36 0.86,5.96 2.58,7.83 1.73,1.87 4.09,2.8 7.08,2.8 1.83,0 3.36,-0.3 4.58,-0.89l0 -6.77 -6.29 0 0 -4.83 12.24 0 0 14.93z"/>
   <polygon id="3" class="fil2" points="95.75,236.05 78.02,236.05 78.02,205.41 95.06,205.41 95.06,210.35 83.95,210.35 83.95,218.15 94.27,218.15 94.27,223.06 83.95,223.06 83.95,231.14 95.75,231.14 "/>
   <path id="4" class="fil2" d="M127.67 236.05l-6.21 0 -13.54 -20.75c-0.56,-0.84 -1.01,-1.63 -1.37,-2.37l-0.09 0c0.11,0.97 0.17,2.55 0.17,4.74l0 18.38 -5.66 0 0 -30.64 6.61 0 13.07 20.21c0.67,1.03 1.16,1.82 1.46,2.37l0.09 0c-0.12,-0.54 -0.17,-1.96 -0.17,-4.28l0 -18.3 5.64 0 0 30.64z"/>
   <polygon id="5" class="fil2" points="140.88,205.41 140.88,236.05 134.95,236.05 134.95,205.41 "/>
   <polygon id="6" class="fil2" points="165.92,236.05 148.19,236.05 148.19,205.41 165.23,205.41 165.23,210.35 154.12,210.35 154.12,218.15 164.44,218.15 164.44,223.06 154.12,223.06 154.12,231.14 165.92,231.14 "/>
   <path id="7" class="fil2" d="M195.74 236.05l-6.87 0 -4.87 -8.1c-0.98,-1.63 -1.83,-2.71 -2.52,-3.22 -0.69,-0.52 -1.44,-0.77 -2.25,-0.77l-2.16 0 0 12.09 -5.93 0 0 -30.64 10.41 0c7.07,0 10.61,2.77 10.61,8.28 0,2.04 -0.6,3.79 -1.78,5.28 -1.19,1.49 -2.88,2.55 -5.07,3.18l0 0.08c1.4,0.47 2.95,2.05 4.64,4.73l5.79 9.09zm-18.67 -26.01l0 9.28 3.54 0c1.6,0 2.89,-0.47 3.86,-1.41 0.96,-0.93 1.44,-2.1 1.44,-3.5 0,-2.92 -1.73,-4.37 -5.2,-4.37l-3.64 0z"/>
   <path id="8" class="fil2" d="M204.92 205.41l0 30.64 -5.93 0 0 -30.64 5.93 0zm3.62 -8.97l-6.37 6.91 -4.25 0 5.33 -6.91 5.29 0z"/>
   <path id="9" class="fil2" d="M238.19 236.05l-6.47 0 -2.48 -7.32 -11.51 0 -2.41 7.32 -6.47 0 11.34 -30.64 6.85 0 11.15 30.64zm-10.43 -12.03l-3.74 -11.09c-0.16,-0.44 -0.31,-1.29 -0.48,-2.54l-0.15 0c-0.11,0.93 -0.28,1.76 -0.52,2.5l-3.77 11.13 8.66 0z"/>
   <polygon id="10" class="fil2" points="268.28,226.31 256.61,226.31 256.61,222.15 268.28,222.15 "/>
   <path id="11" class="fil2" d="M315.77 236.05l-6.47 0 -2.48 -7.32 -11.51 0 -2.42 7.32 -6.47 0 11.35 -30.64 6.85 0 11.15 30.64zm-10.43 -12.03l-3.74 -11.09c-0.16,-0.44 -0.32,-1.29 -0.49,-2.54l-0.14 0c-0.11,0.93 -0.28,1.76 -0.52,2.5l-3.77 11.13 8.66 0z"/>
   <path id="12" class="fil2" d="M344.39 236.05l-6.87 0 -4.87 -8.1c-0.99,-1.63 -1.83,-2.71 -2.52,-3.22 -0.7,-0.52 -1.44,-0.77 -2.25,-0.77l-2.16 0 0 12.09 -5.93 0 0 -30.64 10.4 0c7.08,0 10.62,2.77 10.62,8.28 0,2.04 -0.6,3.79 -1.79,5.28 -1.18,1.49 -2.87,2.55 -5.06,3.18l0 0.08c1.4,0.47 2.95,2.05 4.64,4.73l5.79 9.09zm-18.67 -26.01l0 9.28 3.54 0c1.6,0 2.89,-0.47 3.85,-1.41 0.97,-0.93 1.45,-2.1 1.45,-3.5 0,-2.92 -1.73,-4.37 -5.2,-4.37l-3.64 0z"/>
   <path id="13" class="fil2" d="M345.24 221.12c0,-4.8 1.39,-8.71 4.16,-11.71 2.76,-3 6.44,-4.5 11.03,-4.5 4.36,0 7.87,1.46 10.53,4.37 2.65,2.9 3.98,6.63 3.98,11.18 0,5.2 -1.59,9.31 -4.77,12.32l7.7 7.39 -9.09 0 -4.14 -4.21c-1.44,0.42 -3,0.63 -4.68,0.63 -4.39,0 -7.93,-1.45 -10.65,-4.35 -2.71,-2.9 -4.07,-6.6 -4.07,-11.12zm6.24 -0.32c0,3.1 0.77,5.65 2.31,7.64 1.53,1.99 3.61,2.99 6.25,2.99 2.73,0 4.86,-0.95 6.38,-2.84 1.52,-1.9 2.28,-4.47 2.28,-7.71 0,-3.34 -0.74,-5.98 -2.21,-7.91 -1.47,-1.93 -3.55,-2.89 -6.24,-2.89 -2.72,0 -4.87,1.01 -6.42,3.03 -1.56,2.01 -2.35,4.58 -2.35,7.69z"/>
   <path id="14" class="fil2" d="M404.51 223.04c0,9.03 -4.17,13.55 -12.53,13.55 -8.03,0 -12.05,-4.39 -12.05,-13.17l0 -18.01 5.96 0 0 18.01c0,5.34 2.13,8.01 6.41,8.01 4.19,0 6.28,-2.58 6.28,-7.74l0 -18.28 5.93 0 0 17.63z"/>
   <polygon id="15" class="fil2" points="417.34,205.41 417.34,236.05 411.4,236.05 411.4,205.41 "/>
   <polygon id="16" class="fil2" points="445.15,210.35 436.39,210.35 436.39,236.05 430.44,236.05 430.44,210.35 421.7,210.35 421.7,205.41 445.15,205.41 "/>
   <polygon id="17" class="fil2" points="467.19,236.05 449.46,236.05 449.46,205.41 466.51,205.41 466.51,210.35 455.4,210.35 455.4,218.15 465.72,218.15 465.72,223.06 455.4,223.06 455.4,231.14 467.19,231.14 "/>
   <path id="18" class="fil2" d="M494.04 234.91c-2.22,1.12 -5.11,1.68 -8.66,1.68 -4.54,0 -8.16,-1.39 -10.85,-4.15 -2.7,-2.77 -4.05,-6.46 -4.05,-11.06 0,-4.83 1.5,-8.78 4.51,-11.86 3.02,-3.07 6.88,-4.61 11.6,-4.61 2.97,0 5.45,0.4 7.45,1.19l0 5.79c-2.08,-1.21 -4.44,-1.81 -7.08,-1.81 -3.09,0 -5.57,1 -7.44,3.02 -1.86,2.01 -2.8,4.63 -2.8,7.86 0,3.18 0.89,5.72 2.66,7.62 1.78,1.9 4.15,2.85 7.1,2.85 2.79,0 5.31,-0.66 7.56,-2l0 5.48z"/>
   <polygon id="19" class="fil2" points="520.15,210.35 511.39,210.35 511.39,236.05 505.44,236.05 505.44,210.35 496.7,210.35 496.7,205.41 520.15,205.41 "/>
   <path id="20" class="fil2" d="M548.71 223.04c0,9.03 -4.18,13.55 -12.53,13.55 -8.04,0 -12.05,-4.39 -12.05,-13.17l0 -18.01 5.95 0 0 18.01c0,5.34 2.13,8.01 6.41,8.01 4.19,0 6.29,-2.58 6.29,-7.74l0 -18.28 5.93 0 0 17.63z"/>
   <path id="21" class="fil2" d="M580.22 236.05l-6.87 0 -4.87 -8.1c-0.98,-1.63 -1.83,-2.71 -2.52,-3.22 -0.69,-0.52 -1.44,-0.77 -2.25,-0.77l-2.16 0 0 12.09 -5.93 0 0 -30.64 10.41 0c7.07,0 10.61,2.77 10.61,8.28 0,2.04 -0.6,3.79 -1.78,5.28 -1.19,1.49 -2.88,2.55 -5.07,3.18l0 0.08c1.4,0.47 2.95,2.05 4.64,4.73l5.79 9.09zm-18.67 -26.01l0 9.28 3.54 0c1.6,0 2.89,-0.47 3.86,-1.41 0.96,-0.93 1.44,-2.1 1.44,-3.5 0,-2.92 -1.73,-4.37 -5.2,-4.37l-3.64 0z"/>
   <path id="22" class="fil2" d="M609.46 236.05l-6.47 0 -2.48 -7.32 -11.51 0 -2.42 7.32 -6.47 0 11.35 -30.64 6.85 0 11.15 30.64zm-10.43 -12.03l-3.74 -11.09c-0.16,-0.44 -0.32,-1.29 -0.49,-2.54l-0.14 0c-0.11,0.93 -0.28,1.76 -0.52,2.5l-3.77 11.13 8.66 0z"/>
  </g>
 </g>
</svg>
