<svg xmlns="http://www.w3.org/2000/svg" xmlns:xlink="http://www.w3.org/1999/xlink" width="500" zoomAndPan="magnify" viewBox="0 0 375 374.999991" height="500" preserveAspectRatio="xMidYMid meet" version="1.0"><defs><g/><clipPath id="9e20ec608c"><path d="M 222.449219 126 L 335 126 L 335 239.246094 L 222.449219 239.246094 Z M 222.449219 126 " clip-rule="nonzero"/></clipPath><clipPath id="a649902878"><path d="M 245 120 L 337.199219 120 L 337.199219 216 L 245 216 Z M 245 120 " clip-rule="nonzero"/></clipPath></defs><g clip-path="url(#9e20ec608c)"><path fill="#524f4f" d="M 278.492188 126.644531 C 247.601562 126.644531 222.449219 151.902344 222.449219 182.921875 C 222.449219 213.941406 247.601562 239.199219 278.492188 239.199219 C 309.386719 239.199219 334.539062 213.941406 334.539062 182.921875 C 334.539062 169.511719 330.019531 157.519531 322.34375 147.691406 L 317.066406 153.972656 C 323.757812 162.246094 326.378906 171.429688 326.378906 182.921875 C 326.378906 209.503906 304.96875 230.992188 278.492188 230.992188 C 252.019531 230.992188 230.609375 209.503906 230.609375 182.921875 C 230.609375 156.339844 252.019531 134.839844 278.492188 134.839844 C 286.882812 134.839844 293.15625 136.050781 300.007812 139.847656 L 305.019531 133.238281 C 297 128.789062 288.28125 126.644531 278.492188 126.644531 Z M 278.492188 126.644531 " fill-opacity="1" fill-rule="evenodd"/></g><g clip-path="url(#a649902878)"><path fill="#524f4f" d="M 257.75 175.519531 C 260.011719 175.519531 261.71875 177.382812 262.878906 181.105469 C 265.199219 188.089844 266.847656 191.582031 267.835938 191.582031 C 268.585938 191.582031 269.371094 191 270.179688 189.835938 C 286.464844 163.648438 301.53125 142.46875 315.382812 126.292969 C 318.972656 122.105469 324.683594 120.007812 332.503906 120.007812 C 334.359375 120.007812 335.605469 120.183594 336.242188 120.53125 C 336.878906 120.882812 337.199219 121.316406 337.199219 121.839844 C 337.199219 122.65625 336.242188 124.257812 334.332031 126.640625 C 311.960938 153.640625 291.214844 182.152344 272.09375 212.179688 C 270.761719 214.273438 268.035156 215.320312 263.921875 215.320312 C 259.75 215.320312 257.289062 215.148438 256.535156 214.796875 C 254.5625 213.925781 252.246094 209.472656 249.582031 201.441406 C 246.566406 192.539062 245.058594 186.953125 245.058594 184.683594 C 245.058594 182.242188 247.089844 179.882812 251.144531 177.613281 C 253.636719 176.21875 255.839844 175.519531 257.75 175.519531 " fill-opacity="1" fill-rule="nonzero"/></g><g fill="#1f2750" fill-opacity="1"><g transform="translate(18.704571, 221.964895)"><g><path d="M 38.300781 -45.136719 L 38.300781 -34.421875 C 41.035156 -33.511719 43.429688 -32.03125 45.367188 -30.09375 C 47.875 -27.015625 48.785156 -23.9375 48.101562 -20.746094 C 47.53125 -17.554688 45.820312 -15.160156 42.859375 -13.449219 C 40.351562 -12.308594 37.613281 -11.511719 34.195312 -11.054688 C 30.890625 -10.714844 28.152344 -10.601562 25.761719 -10.714844 C 23.480469 -10.941406 20.175781 -11.054688 15.84375 -11.511719 C 11.625 -11.96875 8.550781 -12.308594 6.726562 -12.425781 L 6.042969 -1.710938 C 8.09375 -1.710938 11.625 -1.480469 16.871094 -1.027344 C 22.226562 -0.570312 26.445312 -0.457031 29.523438 -0.226562 C 32.714844 -0.113281 36.246094 -0.34375 40.351562 -1.027344 C 44.566406 -1.710938 48.101562 -2.964844 50.835938 -4.671875 C 56.308594 -8.207031 59.273438 -13.679688 59.726562 -20.972656 C 60.183594 -27.355469 58.589844 -32.371094 54.941406 -36.246094 C 51.519531 -40.121094 45.9375 -43.085938 38.300781 -45.136719 Z M 14.25 -75.230469 C 9.003906 -71.695312 6.15625 -66.566406 5.699219 -59.726562 C 5.472656 -53.914062 6.953125 -49.242188 10.257812 -45.59375 C 13.449219 -42.402344 19.261719 -39.667969 27.46875 -37.386719 L 27.46875 -47.988281 C 25.417969 -48.214844 23.480469 -49.011719 21.886719 -50.382812 C 20.289062 -51.863281 19.261719 -53.457031 18.578125 -55.167969 C 17.894531 -56.992188 17.667969 -58.703125 18.007812 -60.527344 C 18.464844 -62.464844 19.378906 -64.058594 20.746094 -65.199219 C 22.339844 -66.339844 24.164062 -67.25 26.558594 -67.820312 C 29.066406 -68.503906 31.800781 -68.847656 34.878906 -68.847656 C 38.070312 -68.960938 40.691406 -68.960938 42.859375 -68.847656 C 45.136719 -68.847656 47.757812 -68.617188 50.953125 -68.277344 C 54.144531 -68.050781 56.082031 -67.820312 56.535156 -67.707031 L 57.21875 -78.421875 L 48.898438 -78.992188 C 45.136719 -79.332031 41.945312 -79.5625 39.324219 -79.675781 C 36.816406 -79.902344 33.855469 -80.015625 30.546875 -79.789062 C 27.355469 -79.675781 24.277344 -79.332031 21.542969 -78.535156 C 18.808594 -77.851562 16.414062 -76.710938 14.25 -75.230469 Z M 14.25 -75.230469 "/></g></g></g><g fill="#1f2750" fill-opacity="1"><g transform="translate(84.127098, 221.964895)"><g><path d="M 59.5 -37.273438 L 59.5 -10.714844 L 45.480469 -10.601562 C 40.921875 -10.601562 37.046875 -11.285156 33.855469 -12.425781 C 30.660156 -13.679688 27.925781 -15.617188 25.417969 -18.238281 C 20.402344 -23.824219 17.667969 -30.09375 17.210938 -37.160156 L 5.699219 -37.160156 C 6.269531 -26.214844 9.6875 -17.441406 16.070312 -10.828125 C 23.140625 -3.761719 32.601562 -0.113281 44.683594 -0.113281 L 70.441406 -0.226562 L 70.441406 -37.273438 Z M 44.796875 -80.246094 C 32.828125 -80.246094 23.253906 -76.597656 16.070312 -69.304688 C 10.714844 -63.832031 7.410156 -56.765625 6.15625 -48.101562 L 18.125 -48.101562 C 19.492188 -53.117188 22.226562 -57.90625 26.332031 -62.464844 C 29.066406 -64.859375 31.914062 -66.566406 34.878906 -67.820312 C 37.84375 -69.1875 41.492188 -69.757812 45.707031 -69.757812 L 70.441406 -69.53125 L 70.441406 -80.132812 Z M 44.796875 -80.246094 "/></g></g></g><g fill="#1f2750" fill-opacity="1"><g transform="translate(160.263423, 221.964895)"><g><path d="M 5.699219 -80.132812 L 5.699219 -32.257812 L 30.207031 -32.257812 C 39.210938 -32.257812 45.9375 -34.308594 50.496094 -38.300781 C 55.167969 -42.402344 57.449219 -48.328125 57.449219 -56.195312 C 57.449219 -64.058594 55.167969 -69.988281 50.496094 -73.976562 C 45.9375 -78.078125 39.210938 -80.132812 30.207031 -80.132812 Z M 16.527344 -70.558594 L 30.207031 -70.558594 C 35.222656 -70.558594 39.097656 -69.417969 41.832031 -66.679688 C 44.566406 -64.058594 45.9375 -60.527344 45.9375 -56.195312 C 45.9375 -51.863281 44.566406 -48.558594 41.832031 -45.820312 C 39.097656 -43.199219 35.222656 -41.832031 30.207031 -41.832031 L 16.527344 -41.832031 Z M 5.699219 -21.316406 L 5.699219 0 L 16.527344 0 L 16.527344 -21.316406 Z M 5.699219 -21.316406 "/></g></g></g><g fill="#524f4f" fill-opacity="1"><g transform="translate(30.375052, 256.46597)"><g><path d="M 7.160156 0.378906 C 11.109375 0.378906 13.691406 -2.6875 13.691406 -7.453125 C 13.691406 -12.222656 11.109375 -15.265625 7.160156 -15.265625 C 3.214844 -15.265625 0.628906 -12.199219 0.628906 -7.433594 C 0.628906 -2.6875 3.214844 0.378906 7.160156 0.378906 Z M 7.160156 -1.890625 C 4.789062 -1.890625 3.253906 -4.03125 3.253906 -7.433594 C 3.253906 -10.835938 4.789062 -13 7.160156 -13 C 9.535156 -13 11.046875 -10.835938 11.046875 -7.433594 C 11.046875 -4.03125 9.535156 -1.890625 7.160156 -1.890625 Z M 7.160156 -1.890625 "/></g></g></g><g fill="#524f4f" fill-opacity="1"><g transform="translate(44.697115, 256.46597)"><g><path d="M 0.902344 4.410156 L 3.253906 4.410156 L 3.253906 -1.597656 L 3.277344 -1.597656 C 3.800781 -0.398438 4.828125 0.273438 6.152344 0.273438 C 8.527344 0.273438 9.953125 -1.847656 9.953125 -5.335938 C 9.953125 -8.839844 8.527344 -10.960938 6.152344 -10.960938 C 4.808594 -10.960938 3.695312 -10.269531 3.191406 -8.988281 L 3.171875 -8.988281 L 2.960938 -10.6875 L 0.902344 -10.6875 Z M 5.375 -1.847656 C 3.988281 -1.847656 3.171875 -3.148438 3.171875 -5.335938 C 3.171875 -7.539062 3.988281 -8.820312 5.375 -8.820312 C 6.761719 -8.820312 7.601562 -7.539062 7.601562 -5.335938 C 7.601562 -3.148438 6.761719 -1.847656 5.375 -1.847656 Z M 5.375 -1.847656 "/></g></g></g><g fill="#524f4f" fill-opacity="1"><g transform="translate(55.17616, 256.46597)"><g><path d="M 4.789062 0.273438 C 6.40625 0.273438 7.453125 -0.609375 7.707031 -2.101562 L 6.445312 -3.296875 C 6.320312 -2.164062 5.859375 -1.699219 5.207031 -1.699219 C 4.453125 -1.699219 4.117188 -2.289062 4.117188 -3.277344 L 4.09375 -8.820312 L 7.203125 -8.820312 L 7.203125 -10.6875 L 4.09375 -10.6875 L 4.09375 -14.089844 L 1.742188 -13.546875 L 1.742188 -10.6875 L 0.0195312 -10.6875 L 0.0195312 -8.820312 L 1.742188 -8.820312 L 1.742188 -2.835938 C 1.742188 -0.925781 2.8125 0.273438 4.789062 0.273438 Z M 4.789062 0.273438 "/></g></g></g><g fill="#524f4f" fill-opacity="1"><g transform="translate(62.925194, 256.46597)"><g><path d="M 2.183594 -12.453125 C 3.085938 -12.453125 3.71875 -13.0625 3.71875 -13.945312 C 3.71875 -14.804688 3.085938 -15.414062 2.183594 -15.414062 C 1.300781 -15.414062 0.691406 -14.804688 0.691406 -13.945312 C 0.691406 -13.0625 1.300781 -12.453125 2.183594 -12.453125 Z M 1.007812 0 L 3.382812 0 L 3.382812 -10.6875 L 1.007812 -10.6875 Z M 1.007812 0 "/></g></g></g><g fill="#524f4f" fill-opacity="1"><g transform="translate(67.335209, 256.46597)"><g><path d="M 0.902344 0 L 3.253906 0 L 3.253906 -6.425781 C 3.253906 -7.980469 4.011719 -8.882812 5.207031 -8.882812 C 6.195312 -8.882812 6.742188 -8.296875 6.742188 -7.285156 L 6.71875 0 L 9.09375 0 L 9.113281 -6.425781 C 9.113281 -7.980469 9.847656 -8.882812 11.046875 -8.882812 C 12.011719 -8.882812 12.578125 -8.296875 12.578125 -7.285156 L 12.558594 0 L 14.929688 0 L 14.953125 -7.601562 C 14.953125 -9.703125 13.839844 -10.960938 11.992188 -10.960938 C 10.648438 -10.960938 9.511719 -10.207031 8.902344 -8.988281 L 8.882812 -8.988281 C 8.484375 -10.207031 7.433594 -10.960938 6.070312 -10.960938 C 4.746094 -10.960938 3.652344 -10.246094 3.128906 -9.03125 L 3.109375 -9.03125 L 2.855469 -10.6875 L 0.902344 -10.6875 Z M 0.902344 0 "/></g></g></g><g fill="#524f4f" fill-opacity="1"><g transform="translate(83.106276, 256.46597)"><g><path d="M 2.183594 -12.453125 C 3.085938 -12.453125 3.71875 -13.0625 3.71875 -13.945312 C 3.71875 -14.804688 3.085938 -15.414062 2.183594 -15.414062 C 1.300781 -15.414062 0.691406 -14.804688 0.691406 -13.945312 C 0.691406 -13.0625 1.300781 -12.453125 2.183594 -12.453125 Z M 1.007812 0 L 3.382812 0 L 3.382812 -10.6875 L 1.007812 -10.6875 Z M 1.007812 0 "/></g></g></g><g fill="#524f4f" fill-opacity="1"><g transform="translate(87.516291, 256.46597)"><g><path d="M 0.378906 0 L 7.769531 0 L 7.769531 -1.890625 L 2.75 -1.890625 L 7.558594 -8.484375 L 7.558594 -10.6875 L 0.589844 -10.6875 L 0.589844 -8.757812 L 5.164062 -8.757812 L 0.378906 -2.183594 Z M 0.378906 0 "/></g></g></g><g fill="#524f4f" fill-opacity="1"><g transform="translate(95.643324, 256.46597)"><g><path d="M 3.421875 0.210938 C 4.726562 0.210938 5.773438 -0.421875 6.382812 -1.554688 L 6.40625 -1.554688 L 6.46875 -1.34375 C 6.679688 -0.421875 7.390625 0.210938 8.527344 0.210938 C 9.28125 0.210938 10.121094 -0.0429688 10.6875 -0.652344 L 10.058594 -2.078125 C 9.742188 -1.742188 9.492188 -1.636719 9.238281 -1.636719 C 8.925781 -1.636719 8.734375 -1.867188 8.734375 -2.308594 L 8.734375 -7.054688 C 8.734375 -9.429688 7.265625 -10.984375 4.789062 -10.984375 C 2.332031 -10.984375 0.691406 -9.449219 0.671875 -7.328125 L 2.8125 -6.824219 C 2.835938 -8.148438 3.570312 -9.136719 4.746094 -9.136719 C 5.734375 -9.136719 6.445312 -8.503906 6.445312 -7.414062 C 6.445312 -6.78125 6.109375 -6.46875 5.648438 -6.425781 L 4.304688 -6.257812 C 1.699219 -5.964844 0.335938 -4.683594 0.335938 -2.773438 C 0.335938 -0.925781 1.617188 0.210938 3.421875 0.210938 Z M 4.304688 -1.636719 C 3.382812 -1.636719 2.710938 -2.164062 2.710938 -3.023438 C 2.710938 -3.925781 3.421875 -4.578125 4.851562 -4.789062 L 6.382812 -4.957031 L 6.382812 -4.304688 C 6.382812 -2.710938 5.503906 -1.636719 4.304688 -1.636719 Z M 4.304688 -1.636719 "/></g></g></g><g fill="#524f4f" fill-opacity="1"><g transform="translate(106.332368, 256.46597)"><g><path d="M 6.089844 -10.921875 C 4.808594 -10.921875 3.695312 -10.289062 3.171875 -9.175781 L 3.148438 -9.175781 L 2.898438 -10.6875 L 0.902344 -10.6875 L 0.902344 0 L 3.253906 0 L 3.253906 -6.804688 C 3.253906 -8.191406 3.96875 -8.988281 5.1875 -8.988281 C 6.027344 -8.988281 6.53125 -8.464844 6.53125 -7.519531 L 6.53125 0 L 8.882812 0 L 8.882812 -7.855469 C 8.882812 -9.808594 7.8125 -10.921875 6.089844 -10.921875 Z M 6.089844 -10.921875 "/></g></g></g><g fill="#524f4f" fill-opacity="1"><g transform="translate(116.034405, 256.46597)"><g><path d="M 4.347656 0.273438 C 5.671875 0.273438 6.804688 -0.421875 7.285156 -1.679688 L 7.308594 -1.679688 L 7.539062 0 L 9.597656 0 L 9.597656 -15.519531 L 7.222656 -15.519531 L 7.222656 -9.070312 L 7.203125 -9.070312 C 6.699219 -10.269531 5.648438 -10.960938 4.347656 -10.960938 C 1.972656 -10.960938 0.523438 -8.839844 0.523438 -5.335938 C 0.523438 -1.847656 1.972656 0.273438 4.347656 0.273438 Z M 5.101562 -1.847656 C 3.71875 -1.847656 2.898438 -3.148438 2.898438 -5.335938 C 2.898438 -7.539062 3.71875 -8.820312 5.101562 -8.820312 C 6.488281 -8.820312 7.308594 -7.539062 7.308594 -5.335938 C 7.308594 -3.148438 6.488281 -1.847656 5.101562 -1.847656 Z M 5.101562 -1.847656 "/></g></g></g><g fill="#524f4f" fill-opacity="1"><g transform="translate(126.51345, 256.46597)"><g><path d="M 5.164062 0.292969 C 8.023438 0.292969 9.808594 -1.890625 9.808594 -5.355469 C 9.808594 -8.800781 8.023438 -10.984375 5.164062 -10.984375 C 2.332031 -10.984375 0.523438 -8.800781 0.523438 -5.355469 C 0.523438 -1.890625 2.332031 0.292969 5.164062 0.292969 Z M 5.164062 -1.742188 C 3.757812 -1.742188 2.898438 -3.128906 2.898438 -5.355469 C 2.898438 -7.582031 3.757812 -8.902344 5.164062 -8.902344 C 6.550781 -8.902344 7.433594 -7.582031 7.433594 -5.355469 C 7.433594 -3.128906 6.550781 -1.742188 5.164062 -1.742188 Z M 5.164062 -1.742188 "/></g></g></g><g fill="#524f4f" fill-opacity="1"><g transform="translate(136.866496, 256.46597)"><g/></g></g><g fill="#524f4f" fill-opacity="1"><g transform="translate(140.247516, 256.46597)"><g><path d="M 3.800781 0 L 6.445312 0 L 6.445312 -12.601562 L 9.996094 -12.601562 L 9.996094 -14.890625 L 0.253906 -14.890625 L 0.253906 -12.601562 L 3.800781 -12.601562 Z M 3.800781 0 "/></g></g></g><g fill="#524f4f" fill-opacity="1"><g transform="translate(150.495562, 256.46597)"><g><path d="M 3.421875 0.210938 C 4.726562 0.210938 5.773438 -0.421875 6.382812 -1.554688 L 6.40625 -1.554688 L 6.46875 -1.34375 C 6.679688 -0.421875 7.390625 0.210938 8.527344 0.210938 C 9.28125 0.210938 10.121094 -0.0429688 10.6875 -0.652344 L 10.058594 -2.078125 C 9.742188 -1.742188 9.492188 -1.636719 9.238281 -1.636719 C 8.925781 -1.636719 8.734375 -1.867188 8.734375 -2.308594 L 8.734375 -7.054688 C 8.734375 -9.429688 7.265625 -10.984375 4.789062 -10.984375 C 2.332031 -10.984375 0.691406 -9.449219 0.671875 -7.328125 L 2.8125 -6.824219 C 2.835938 -8.148438 3.570312 -9.136719 4.746094 -9.136719 C 5.734375 -9.136719 6.445312 -8.503906 6.445312 -7.414062 C 6.445312 -6.78125 6.109375 -6.46875 5.648438 -6.425781 L 4.304688 -6.257812 C 1.699219 -5.964844 0.335938 -4.683594 0.335938 -2.773438 C 0.335938 -0.925781 1.617188 0.210938 3.421875 0.210938 Z M 4.304688 -1.636719 C 3.382812 -1.636719 2.710938 -2.164062 2.710938 -3.023438 C 2.710938 -3.925781 3.421875 -4.578125 4.851562 -4.789062 L 6.382812 -4.957031 L 6.382812 -4.304688 C 6.382812 -2.710938 5.503906 -1.636719 4.304688 -1.636719 Z M 4.304688 -1.636719 "/></g></g></g><g fill="#524f4f" fill-opacity="1"><g transform="translate(161.184606, 256.46597)"><g><path d="M 5.503906 -10.960938 C 4.390625 -10.960938 3.507812 -10.183594 3.109375 -8.882812 L 3.085938 -8.882812 L 2.8125 -10.6875 L 0.902344 -10.6875 L 0.902344 0 L 3.253906 0 L 3.253906 -5.734375 C 3.253906 -7.8125 3.84375 -9.09375 4.765625 -9.09375 C 5.542969 -9.09375 6.007812 -8.335938 6.007812 -6.761719 L 8.023438 -7.328125 C 8.023438 -9.660156 7.078125 -10.960938 5.503906 -10.960938 Z M 5.503906 -10.960938 "/></g></g></g><g fill="#524f4f" fill-opacity="1"><g transform="translate(169.563637, 256.46597)"><g><path d="M 5.460938 0.292969 C 7.476562 0.292969 9.15625 -0.859375 9.597656 -2.878906 L 7.601562 -3.484375 C 7.308594 -2.226562 6.53125 -1.554688 5.398438 -1.554688 C 3.886719 -1.554688 2.941406 -2.6875 2.835938 -4.640625 L 9.28125 -4.640625 C 9.324219 -4.765625 9.34375 -5.101562 9.34375 -5.503906 C 9.34375 -8.925781 7.707031 -10.984375 5.019531 -10.984375 C 2.226562 -10.984375 0.523438 -8.882812 0.523438 -5.417969 C 0.523438 -1.867188 2.394531 0.292969 5.460938 0.292969 Z M 2.855469 -6.238281 C 3.003906 -8.042969 3.652344 -9.09375 5.019531 -9.09375 C 6.257812 -9.09375 6.910156 -8.042969 6.992188 -6.238281 Z M 2.855469 -6.238281 "/></g></g></g><g fill="#524f4f" fill-opacity="1"><g transform="translate(179.601673, 256.46597)"><g><path d="M 3.421875 0.210938 C 4.726562 0.210938 5.773438 -0.421875 6.382812 -1.554688 L 6.40625 -1.554688 L 6.46875 -1.34375 C 6.679688 -0.421875 7.390625 0.210938 8.527344 0.210938 C 9.28125 0.210938 10.121094 -0.0429688 10.6875 -0.652344 L 10.058594 -2.078125 C 9.742188 -1.742188 9.492188 -1.636719 9.238281 -1.636719 C 8.925781 -1.636719 8.734375 -1.867188 8.734375 -2.308594 L 8.734375 -7.054688 C 8.734375 -9.429688 7.265625 -10.984375 4.789062 -10.984375 C 2.332031 -10.984375 0.691406 -9.449219 0.671875 -7.328125 L 2.8125 -6.824219 C 2.835938 -8.148438 3.570312 -9.136719 4.746094 -9.136719 C 5.734375 -9.136719 6.445312 -8.503906 6.445312 -7.414062 C 6.445312 -6.78125 6.109375 -6.46875 5.648438 -6.425781 L 4.304688 -6.257812 C 1.699219 -5.964844 0.335938 -4.683594 0.335938 -2.773438 C 0.335938 -0.925781 1.617188 0.210938 3.421875 0.210938 Z M 4.304688 -1.636719 C 3.382812 -1.636719 2.710938 -2.164062 2.710938 -3.023438 C 2.710938 -3.925781 3.421875 -4.578125 4.851562 -4.789062 L 6.382812 -4.957031 L 6.382812 -4.304688 C 6.382812 -2.710938 5.503906 -1.636719 4.304688 -1.636719 Z M 4.304688 -1.636719 "/></g></g></g><g fill="#524f4f" fill-opacity="1"><g transform="translate(190.290717, 256.46597)"><g><path d="M 4.597656 0.292969 C 6.949219 0.292969 8.632812 -0.988281 8.632812 -2.960938 C 8.632812 -4.324219 7.789062 -5.269531 5.984375 -5.941406 L 4.660156 -6.425781 C 3.507812 -6.886719 3.023438 -7.328125 3.023438 -8.023438 C 3.023438 -8.714844 3.527344 -9.21875 4.324219 -9.21875 C 5.1875 -9.21875 5.816406 -8.632812 5.839844 -7.308594 L 8.023438 -7.644531 C 7.9375 -9.808594 6.34375 -10.984375 4.390625 -10.984375 C 2.351562 -10.984375 0.882812 -9.722656 0.882812 -7.8125 C 0.882812 -6.382812 1.617188 -5.460938 3.402344 -4.808594 L 4.726562 -4.324219 C 5.878906 -3.886719 6.363281 -3.445312 6.382812 -2.773438 C 6.382812 -1.953125 5.648438 -1.449219 4.640625 -1.449219 C 3.402344 -1.449219 2.539062 -2.269531 2.519531 -3.800781 L 0.378906 -3.421875 C 0.421875 -1.070312 2.203125 0.292969 4.597656 0.292969 Z M 4.597656 0.292969 "/></g></g></g></svg>